<?xml version="1.0" encoding="UTF-8"?>
<!DOCTYPE svg PUBLIC "-//W3C//DTD SVG 1.1//EN" "http://www.w3.org/Graphics/SVG/1.1/DTD/svg11.dtd">
<!-- Creator: CorelDRAW 2017 -->
<svg xmlns="http://www.w3.org/2000/svg" xml:space="preserve" width="18.7998cm" height="3.7007cm" version="1.1" style="shape-rendering:geometricPrecision; text-rendering:geometricPrecision; image-rendering:optimizeQuality; fill-rule:evenodd; clip-rule:evenodd"
viewBox="0 0 18799.8 3700.7"
 xmlns:xlink="http://www.w3.org/1999/xlink">
 <defs>
  <style type="text/css">
   <![CDATA[
    .fil1 {fill:#3C8EFF}
    .fil2 {fill:#B4B4B4}
    .fil0 {fill:black;fill-rule:nonzero}
   ]]>
  </style>
 </defs>
 <g id="Layer_x0020_1">
  <metadata id="CorelCorpID_0Corel-Layer"/>
  <path class="fil0" d="M2893.3 147.85l-1243.31 3356.77 -433.08 0 -1216.94 -3356.77 437.87 0 929.29 2661.6c29.56,85.5 51.94,184.58 67.92,297.25l8.79 0c12.78,-93.49 38.35,-194.17 77.5,-302.04l948.47 -2656.81 423.49 0z"/>
  <path id="1" class="fil0" d="M3520.55 498.63c-67.92,0 -127.05,-23.18 -174.99,-70.32 -48.74,-46.34 -72.71,-105.47 -72.71,-177.39 0,-71.91 23.97,-131.84 72.71,-178.98 47.94,-47.95 107.07,-71.92 174.99,-71.92 70.31,0 130.24,23.97 179.78,71.92 48.74,47.14 73.51,107.07 73.51,178.98 0,68.72 -24.77,127.05 -73.51,174.99 -49.54,48.74 -109.47,72.72 -179.78,72.72zm187.77 3005.99l-384.34 0 0 -2397.13 384.34 0 0 2397.13z"/>
  <polygon id="2" class="fil0" points="6156.59,1217.76 4738.29,3177.01 6143.01,3177.01 6143.01,3504.62 4174.17,3504.62 4174.17,3385.56 5592.47,1435.1 4307.61,1435.1 4307.61,1107.49 6156.59,1107.49 "/>
  <path id="3" class="fil0" d="M7903.29 1495.83c-67.12,-51.14 -163.8,-76.71 -290.05,-76.71 -164.6,0 -301.24,76.71 -411.5,231.72 -109.47,154.22 -164.61,365.17 -164.61,632.05l0 1221.73 -384.34 0 0 -2397.13 384.34 0 0 493.81 9.59 0c54.34,-168.6 137.44,-299.64 250.1,-394.72 112.67,-94.29 238.12,-141.43 377.15,-141.43 99.88,0 175.79,11.18 229.32,32.76l0 397.92z"/>
  <path id="4" class="fil0" d="M10258.07 3504.62l-383.54 0 0 -379.54 -9.59 0c-159.01,290.85 -405.91,435.47 -739.91,435.47 -571.32,0 -856.57,-339.59 -856.57,-1020.37l0 -1432.69 381.14 0 0 1371.96c0,505.79 194.17,758.29 580.9,758.29 186.98,0 341.19,-68.72 462.65,-206.95 120.65,-138.24 181.38,-318.82 181.38,-542.55l0 -1380.75 383.54 0 0 2397.13z"/>
  <path id="5" class="fil0" d="M13023.56 3504.62l-384.34 0 0 -1367.16c0,-508.99 -185.38,-763.09 -556.93,-763.09 -191.77,0 -350.78,71.92 -476.23,216.55 -126.25,144.62 -188.58,326.8 -188.58,546.54l0 1367.16 -384.34 0 0 -2397.13 384.34 0 0 397.93 9.59 0c180.59,-302.84 442.67,-453.86 786.26,-453.86 262.08,0 462.64,84.7 601.68,254.1 139.03,168.6 208.55,413.9 208.55,733.52l0 1465.44z"/>
  <path id="6" class="fil0" d="M18799.82 3481.45c-90.29,49.54 -210.15,74.31 -357.97,74.31 -420.3,0 -629.65,-234.12 -629.65,-702.36l0 -1418.3 -412.3 0 0 -327.61 412.3 0 0 -584.89 383.54 -124.65 0 709.54 604.08 0 0 327.61 -604.08 0 0 1351.18c0,160.61 27.17,274.87 82.31,343.59 54.33,68.72 144.62,103.08 271.67,103.08 96.68,0 179.78,-26.37 250.1,-79.91l0 328.41z"/>
  <path id="Path_9" class="fil1" d="M15540.36 3048.21c-198.66,105.95 -413.21,180.12 -635.7,217.2 -209.25,31.79 -598.62,-47.68 -598.62,-140.38 0,-39.73 341.69,84.76 550.94,31.79 156.28,-39.73 132.44,-185.41 47.68,-209.25 -84.76,-23.84 -590.67,-201.31 -799.92,-209.25 -100.65,0 -349.64,39.73 -474.13,55.62 -39.73,7.95 -68.87,7.95 -68.87,47.68 -15.89,185.41 -39.73,558.89 -47.68,752.25 0,7.95 7.95,60.92 55.62,23.84 47.68,-47.68 124.49,-92.71 185.41,-76.81 100.65,23.84 985.34,185.41 1109.83,156.28 177.47,-39.73 667.49,-333.74 768.14,-426.45 148.33,-145.71 31.79,-294.04 -92.7,-222.52z"/>
  <path id="Path_10" class="fil2" d="M14833.14 1657.61c198.66,-105.95 413.21,-180.12 635.7,-217.2 209.25,-31.79 598.62,47.68 598.62,140.38 0,39.73 -341.69,-84.76 -550.94,-31.79 -156.28,39.73 -132.44,185.41 -47.68,209.25 84.76,23.84 590.67,201.31 799.92,209.25 100.65,0 349.64,-39.73 474.13,-55.62 39.73,-7.95 68.87,-7.95 68.87,-47.68 15.89,-185.41 39.73,-558.89 47.68,-752.25 0,-7.95 -7.95,-60.92 -55.62,-23.84 -47.68,47.68 -124.49,92.71 -185.41,76.81 -100.65,-23.84 -985.34,-185.41 -1109.83,-156.28 -177.47,39.73 -667.49,333.74 -768.14,426.45 -140.39,137.76 -23.85,291.39 92.7,222.52z"/>
 </g>
</svg>
