<?xml version="1.0" encoding="utf-8"?>
<svg xmlns="http://www.w3.org/2000/svg">

  <symbol id="search" viewBox="-4128 -10840 30.2 30.2">
    <path d="M27.571,24.983H26.191l-.431-.431a10.953,10.953,0,0,0,2.675-7.334A11.217,11.217,0,1,0,17.217,28.434a11.583,11.583,0,0,0,7.334-2.675l.431.431v1.381L33.611,36.2,36.2,33.611Zm-10.354,0a7.766,7.766,0,1,1,7.766-7.766A7.733,7.733,0,0,1,17.217,24.983Z" transform="translate(-4134 -10846)"/>
  </symbol>

  <symbol id="down" viewBox="-4286 -10830 16.55 10.205" fill="currentColor">
    <path d="M13.931,17.2l6.344,6.344L26.619,17.2l1.931,1.931-8.275,8.275L12,19.131Z" transform="translate(-4298 -10847.2)"/>
  </symbol>

  <symbol id="facebook" viewBox="-4206 -10838 13.001 26.9">
    <path id="facebook" data-name="facebook" d="M0,8.892H2.765V6.2c0-1.2,0-3.064.9-4.184A4.964,4.964,0,0,1,8,0,16.994,16.994,0,0,1,13,.523l-.672,4.11a10.905,10.905,0,0,0-2.242-.3c-1.046,0-2.017.374-2.017,1.494V8.967h4.409L12.18,13H8.07V26.9H2.839V12.927H0Z" transform="translate(-4206 -10838)"/>
  </symbol>

  <symbol id="twitter" viewBox="-4385 -10839 34.667 28.215">
    <path d="M34.667,3.37a14.01,14.01,0,0,1-4.044,1.156A7.012,7.012,0,0,0,33.7.578a14.26,14.26,0,0,1-4.526,1.733A6.915,6.915,0,0,0,23.978,0a7.11,7.11,0,0,0-7.126,7.126,9.487,9.487,0,0,0,.193,1.637A20.506,20.506,0,0,1,2.407,1.348a7.582,7.582,0,0,0-.963,3.563,6.92,6.92,0,0,0,3.178,5.874,7.115,7.115,0,0,1-3.178-.867v.1a6.955,6.955,0,0,0,5.681,6.933,6.047,6.047,0,0,1-1.83.289,6.357,6.357,0,0,1-1.348-.1,7.055,7.055,0,0,0,6.644,4.911,14.128,14.128,0,0,1-8.859,3.081A10.466,10.466,0,0,1,0,25.037a20.26,20.26,0,0,0,10.881,3.178c13.1,0,20.222-10.881,20.222-20.222V7.03A16.007,16.007,0,0,0,34.667,3.37" transform="translate(-4385 -10839)"/>
  </symbol>

  <symbol id="instagram" viewBox="-4475 -10838 25.215 25.215">
    <path d="M20.312,0H4.9A4.873,4.873,0,0,0,0,4.9V20.312a4.917,4.917,0,0,0,4.9,4.9H20.312a4.917,4.917,0,0,0,4.9-4.9V4.9A4.873,4.873,0,0,0,20.312,0Zm1.4,2.872h.56V7.144H18V2.872ZM9.035,10.016a4.414,4.414,0,0,1,7.144,0,4.108,4.108,0,0,1,.841,2.592,4.413,4.413,0,1,1-8.825,0A4.108,4.108,0,0,1,9.035,10.016Zm13.728,10.3a2.378,2.378,0,0,1-2.451,2.381H4.9a2.362,2.362,0,0,1-2.381-2.381v-10.3H6.3a6.332,6.332,0,0,0-.49,2.592,6.864,6.864,0,0,0,13.728,0,7.748,7.748,0,0,0-.49-2.592h3.782v10.3Z" transform="translate(-4475 -10838)"/>
  </symbol>

  <symbol id="star" viewBox="-4900 -10846 44.617 42.386">
    <path id="Path_66" data-name="Path 66" d="M26.309,38.02,40.14,46.386,36.459,30.659,48.617,20.174,32.555,18.835,26.309,4,20.062,18.835,4,20.174l12.158,10.6L12.477,46.386Z" transform="translate(-4904 -10850)"/>
  </symbol>

  <symbol id="close" viewBox="-4034 -10836 21.471 21.471">
    <path id="Path_69" data-name="Path 69" d="M31.471,12.147,29.324,10l-8.588,8.588L12.147,10,10,12.147l8.588,8.588L10,29.324l2.147,2.147,8.588-8.588,8.588,8.588,2.147-2.147-8.588-8.588Z" transform="translate(-4044 -10846)"/>
  </symbol>

  <symbol id="question" viewBox="-4674 -10843 36.1 36.101">
    <path id="Path_70" data-name="Path 70" d="M20.245,32.88h3.61V29.27h-3.61ZM22.05,4A18.05,18.05,0,1,0,40.1,22.05,18.1,18.1,0,0,0,22.05,4Zm0,32.49A14.44,14.44,0,1,1,36.49,22.05,14.483,14.483,0,0,1,22.05,36.49Zm0-25.27a7.241,7.241,0,0,0-7.22,7.22h3.61a3.61,3.61,0,0,1,7.22,0c0,3.61-5.415,3.159-5.415,9.025h3.61c0-4.061,5.415-4.513,5.415-9.025A7.241,7.241,0,0,0,22.05,11.22Z" transform="translate(-4678 -10847)"/>
  </symbol>

  <symbol id="left" viewBox="-4574 -10836 34.651 23.101">
    <path id="Path_71" data-name="Path 71" d="M40.651,21.625H13.411l6.93-6.93L17.55,12,6,23.55,17.55,35.1l2.7-2.7-6.834-6.93H40.651Z" transform="translate(-4580 -10848)"/>
  </symbol>

  <symbol id="phone" viewBox="-5217 -10843 36.891 36.892">
    <path id="Path_72" data-name="Path 72" d="M288.981,21.986a30.821,30.821,0,0,0,13.527,13.527L307.016,31a1.919,1.919,0,0,1,2.049-.512,24.036,24.036,0,0,0,7.276,1.127,2.055,2.055,0,0,1,2.049,2.05v7.173a2.055,2.055,0,0,1-2.049,2.05A34.812,34.812,0,0,1,281.5,8.05,2.056,2.056,0,0,1,283.55,6h7.173a2.056,2.056,0,0,1,2.05,2.05,24.033,24.033,0,0,0,1.127,7.276,1.919,1.919,0,0,1-.512,2.05Z" transform="translate(-5498.5 -10849)"/>

  </symbol>

  <symbol id="triangle" viewBox="-4791 -10846 52.982 42.386">
    <path id="Path_73" data-name="Path 73" d="M26.491,10.067h0M26.491,0,0,42.386H52.982Z" transform="translate(-4791 -10846)"/>

  </symbol>

  <symbol id="circles" viewBox="-3948 -10838 26.966 26.966">
    <path id="Path_74" data-name="Path 74" d="M26.989,7.978,25.1,9.865a10.763,10.763,0,1,1-8.966-3.1v2.7a8.036,8.036,0,1,0,7.079,2.225l-1.888,1.888a5.638,5.638,0,0,1,1.551,3.843,5.393,5.393,0,1,1-6.742-5.191v2.9a2.7,2.7,0,1,0,2.7,0V4H17.483A13.483,13.483,0,1,0,30.966,17.483,13.182,13.182,0,0,0,26.989,7.978Z" transform="translate(-3952 -10842)"/>

  </symbol>

  <symbol id="doc" viewBox="-5116 -10848 36.713 45.892">
    <path id="Path_75" data-name="Path 75" d="M30.946,4H12.589A4.6,4.6,0,0,0,8,8.589V45.3a4.6,4.6,0,0,0,4.589,4.589H40.124A4.6,4.6,0,0,0,44.714,45.3V17.768Zm4.589,36.714H17.178V36.124H35.535Zm0-9.178H17.178V26.946H35.535ZM28.651,20.062V7.442l12.62,12.62Z" transform="translate(-5124 -10852)"/>
  </symbol>

  <symbol id="info" viewBox="-3857 -10843 10.942 37.199">
    <path id="path_928" data-name="path 928" d="M5374,11280.729v-10.941a5.471,5.471,0,1,1,10.942,0v10.941a5.471,5.471,0,0,1-10.942,0Zm0-26.26a5.471,5.471,0,1,1,5.47,5.473A5.471,5.471,0,0,1,5374,11254.47Z" transform="translate(-9230.999 -22092)"/>
  </symbol>

  <symbol id="image" viewBox="-5015 -10848 50.741 45.667" fill="currentColor">
    <path id="payh_322" data-name="payh 322" d="M318.074,5497.667a5.09,5.09,0,0,1-5.074-5.074v-30.444a5.09,5.09,0,0,1,5.074-5.075h7.993L330.76,5452h15.223l4.693,5.073h7.992a5.09,5.09,0,0,1,5.074,5.075v30.444a5.09,5.09,0,0,1-5.074,5.074Zm7.612-20.3a12.685,12.685,0,1,0,12.684-12.684A12.722,12.722,0,0,0,325.686,5477.37Zm4.567,0a8.118,8.118,0,1,1,8.117,8.119A8.117,8.117,0,0,1,330.253,5477.37Z" transform="translate(-5328 -16300)"/>
  </symbol>

</svg>